# xmcd CD database file
#
# Track frame offsets:
#	180
#	13700
#	27768
#	45100
#	56684
#	66899
#	78542
#	90600
#	102704
#	114553
#
# Disc length: 1725 seconds
#
# Revision: 1
# Processed by: cddbd v1.5.1PL0 Copyright (c) Steve Scherf et al.
# Submitted via: CDex 1.51
#
DISCID=7a06bb0a
DTITLE=Conway Twitty - David Allan Coe Presents
DYEAR=2002
DGENRE=Country
TTITLE0=After All The Good Is Gone
TTITLE1=Baby's Gone
TTITLE2=Don't Cry Joni
TTITLE3=Hello Darlin'
TTITLE4=I'll Try
TTITLE5=It's Only Make Believe
TTITLE6=I'm Not Through Loving You Yet
TTITLE7=(Lying Here With) Linda On My Mind
TTITLE8=To See An Angel
TTITLE9=You've Never Been This Far Before
EXTD=YEAR: 2002
EXTT0=
EXTT1=
EXTT2=
EXTT3=
EXTT4=
EXTT5=
EXTT6=
EXTT7=
EXTT8=
EXTT9=
PLAYORDER=
